HIERARCHY
ROOT Hips
{
	OFFSET 0.000000 0.000000 0.000000
	CHANNELS 6 Xposition Yposition Zposition Zrotation Yrotation Xrotation 
	JOINT LHipJoint
	{
		OFFSET 0.000000 0.000000 0.000000
		CHANNELS 3 Zrotation Yrotation Xrotation
		JOINT LeftUpLeg
		{
			OFFSET 1.363060 -1.794630 0.839290
			CHANNELS 3 Zrotation Yrotation Xrotation
			JOINT LeftLeg
			{
				OFFSET 2.448110 -6.726130 0.000000
				CHANNELS 3 Zrotation Yrotation Xrotation
				JOINT LeftFoot
				{
					OFFSET 2.562200 -7.039590 0.000000
					CHANNELS 3 Zrotation Yrotation Xrotation
					JOINT LeftToeBase
					{
						OFFSET 0.157640 -0.433110 2.322550
						CHANNELS 3 Zrotation Yrotation Xrotation
						End Site
						{
							OFFSET 0.000000 0.000000 0.000000
						}
					}
				}
			}
		}
	}
	JOINT RHipJoint
	{
		OFFSET 0.000000 0.000000 0.000000
		CHANNELS 3 Zrotation Yrotation Xrotation
		JOINT RightUpLeg
		{
			OFFSET -1.305520 -1.794630 0.839290
			CHANNELS 3 Zrotation Yrotation Xrotation
			JOINT RightLeg
			{
				OFFSET -2.542530 -6.985550 0.000000
				CHANNELS 3 Zrotation Yrotation Xrotation
				JOINT RightFoot
				{
					OFFSET -2.568260 -7.056230 0.000000
					CHANNELS 3 Zrotation Yrotation Xrotation
					JOINT RightToeBase
					{
						OFFSET -0.164730 -0.452590 2.363150
						CHANNELS 3 Zrotation Yrotation Xrotation
						End Site
						{
							OFFSET 0.000000 0.000000 0.000000
						}
					}
				}
			}
		}
	}
	JOINT LowerBack
	{
		OFFSET 0.000000 0.000000 0.000000
		CHANNELS 3 Zrotation Yrotation Xrotation
		JOINT Spine
		{
			OFFSET 0.028270 2.035590 -0.193380
			CHANNELS 3 Zrotation Yrotation Xrotation
			JOINT Spine1
			{
				OFFSET 0.056720 2.048850 -0.042750
				CHANNELS 3 Zrotation Yrotation Xrotation
				JOINT Neck
				{
					OFFSET 0.000000 0.000000 0.000000
					CHANNELS 3 Zrotation Yrotation Xrotation
					JOINT Neck1
					{
						OFFSET -0.054170 1.746240 0.172020
						CHANNELS 3 Zrotation Yrotation Xrotation
						JOINT Head
						{
							OFFSET 0.104070 1.761360 -0.123970
							CHANNELS 3 Zrotation Yrotation Xrotation
							End Site
							{
								OFFSET 0.000000 0.000000 0.000000
							}
						}
					}
				}
				JOINT LeftShoulder
				{
					OFFSET 0.000000 0.000000 0.000000
					CHANNELS 3 Zrotation Yrotation Xrotation
					JOINT LeftArm
					{
						OFFSET 3.362410 1.200890 -0.311210
						CHANNELS 3 Zrotation Yrotation Xrotation
						JOINT LeftForeArm
						{
							OFFSET 4.983000 -0.000000 -0.000000
							CHANNELS 3 Zrotation Yrotation Xrotation
							JOINT LeftHand
							{
								OFFSET 3.483560 -0.000000 -0.000000
								CHANNELS 3 Zrotation Yrotation Xrotation
								JOINT LeftFingerBase
								{
									OFFSET 0.000000 0.000000 0.000000
									CHANNELS 3 Zrotation Yrotation Xrotation
									JOINT LeftHandIndex1
									{
										OFFSET 0.715260 -0.000000 -0.000000
										CHANNELS 3 Zrotation Yrotation Xrotation
										End Site
										{
											OFFSET 0.000000 0.000000 0.000000
										}
									}
								}
								JOINT LThumb
								{
									OFFSET 0.000000 0.000000 0.000000
									CHANNELS 3 Zrotation Yrotation Xrotation
									End Site
									{
										OFFSET 0.000000 0.000000 0.000000
									}
								}
							}
						}
					}
				}
				JOINT RightShoulder
				{
					OFFSET 0.000000 0.000000 0.000000
					CHANNELS 3 Zrotation Yrotation Xrotation
					JOINT RightArm
					{
						OFFSET -3.136600 1.374050 -0.404650
						CHANNELS 3 Zrotation Yrotation Xrotation
						JOINT RightForeArm
						{
							OFFSET -5.241900 -0.000000 -0.000000
							CHANNELS 3 Zrotation Yrotation Xrotation
							JOINT RightHand
							{
								OFFSET -3.444170 -0.000000 -0.000000
								CHANNELS 3 Zrotation Yrotation Xrotation
								JOINT RightFingerBase
								{
									OFFSET 0.000000 0.000000 0.000000
									CHANNELS 3 Zrotation Yrotation Xrotation
									JOINT RightHandIndex1
									{
										OFFSET -0.622530 -0.000000 -0.000000
										CHANNELS 3 Zrotation Yrotation Xrotation
										End Site
										{
											OFFSET 0.000000 0.000000 0.000000
										}
									}
								}
								JOINT RThumb
								{
									OFFSET 0.000000 0.000000 0.000000
									CHANNELS 3 Zrotation Yrotation Xrotation
									End Site
									{
										OFFSET 0.000000 0.000000 0.000000
									}
								}
							}
						}
					}
				}
			}
		}
	}
}
MOTION
Frames: 4
Frame Time: 0.008333
-1.076616 16.523480 -1.023721 -153.098148 74.153249 -155.158442 -10.520461 2.350270 0.433529 -24.660609 18.569705 -25.146167 -2.799472 -0.350263 15.501431 2.979506 13.590792 -17.967407 177.355900 -0.000000 -8.815300 9.674674 -4.495012 -2.566470 -5.378502 -25.228480 6.091553 -0.293625 -2.599325 38.160745 -0.596260 10.425841 29.380354 6.363300 -0.000001 -92.326500 2.561581 0.884637 -0.553405 0.033412 0.737520 -2.390360 -4.603711 0.715758 2.828580 9.081248 -15.587512 -10.518814 -1.154545 -0.051267 -0.748141 0.000000 0.000000 0.000000 -5.057149 27.030245 1.362580 -84.107641 32.167123 5.916568 -3.771889 -25.172525 -0.034290 -12.874982 10.923642 -1.256377 0.010166 -0.159621 -0.000000 0.000000 0.000000 0.000000 0.000000 0.000000 0.000000 9.683139 -10.319366 0.317248 34.395657 12.889083 14.548956 1.141787 56.442903 0.010424 5.250704 5.563978 0.263864 -0.032566 -0.145574 0.000000 0.000000 0.000000 0.000000 0.000000 0.000000 0.000000 
-0.885286 16.491205 -1.096858 -153.213005 73.934556 -155.234919 -10.520687 2.333069 0.456732 -24.401148 17.947967 -24.607313 -2.747215 -0.305098 16.443493 3.127248 14.028808 -19.177991 176.940900 0.000000 -11.775100 9.813865 -4.377705 -2.506595 -5.715828 -24.626821 4.833822 -0.422276 -2.639974 40.909506 -0.760700 11.390876 31.710246 7.360400 -0.000000 -90.440200 2.477243 0.837269 -0.613776 0.000598 0.690949 -2.417442 -4.678400 0.670060 2.787294 9.229699 -15.602483 -10.572223 -1.192768 -0.053749 -0.761785 0.000000 0.000000 0.000000 -5.010452 26.864075 1.341929 -83.815617 31.669210 6.380449 -3.744814 -25.426473 -0.033551 -12.802390 10.733279 -1.227368 0.010090 -0.156875 -0.000000 0.000000 0.000000 0.000000 0.000000 0.000000 0.000000 9.944248 -10.286932 0.331915 35.015586 12.335407 14.411364 1.194999 56.311127 0.010758 5.271914 5.605308 0.266586 -0.028736 -0.144328 0.000000 0.000000 0.000000 0.000000 0.000000 0.000000 0.000000 
-0.697849 16.460555 -1.167971 -153.579148 73.717022 -155.505317 -10.492682 2.329559 0.464460 -24.274806 17.363086 -24.194763 -2.708450 -0.244801 17.525154 3.280705 14.474966 -20.403865 176.501900 -0.000000 -14.019400 9.956689 -4.245952 -2.424296 -5.920572 -23.860738 3.397302 -0.536209 -2.684345 43.686405 -0.927256 11.598095 33.493513 7.838300 0.000001 -87.704200 2.344893 0.770196 -0.680614 -0.040332 0.627322 -2.446769 -4.753973 0.606789 2.744520 9.361561 -15.582744 -10.622409 -1.235753 -0.056673 -0.774354 0.000000 0.000000 0.000000 -4.973066 26.688886 1.320851 -83.421307 31.040238 6.875617 -3.717111 -25.672650 -0.032620 -12.667027 10.465273 -1.183752 0.009226 -0.153252 -0.000000 0.000000 0.000000 0.000000 0.000000 0.000000 0.000000 10.185151 -10.218149 0.338059 35.803791 11.739327 14.197522 1.254547 56.111134 0.011125 5.241667 5.650185 0.266916 -0.023759 -0.143428 0.000000 0.000000 0.000000 0.000000 0.000000 0.000000 0.000000 
-0.514626 16.432345 -1.237257 -154.193764 73.482363 -155.968245 -10.441273 2.338301 0.461358 -24.264215 16.799067 -23.873947 -2.680660 -0.173443 18.688041 3.434157 14.911387 -21.604529 176.054300 -0.000001 -15.692800 10.100488 -4.104451 -2.323387 -6.003001 -22.955331 1.804841 -0.645627 -2.739771 46.450899 -1.089598 11.000902 34.643801 7.701100 -0.000000 -84.291499 2.171565 0.684803 -0.754073 -0.088033 0.547530 -2.477909 -4.829612 0.526841 2.701129 9.469995 -15.532102 -10.665479 -1.283043 -0.060054 -0.784815 0.000000 0.000000 0.000000 -4.936268 26.497589 1.300234 -82.932912 30.277250 7.377497 -3.690186 -25.904001 -0.031513 -12.460934 10.135959 -1.127330 0.007422 -0.148817 -0.000000 0.000000 0.000000 0.000000 0.000000 0.000000 0.000000 10.396723 -10.118819 0.332985 36.769376 11.082251 13.886332 1.319882 55.836214 0.011509 5.144198 5.693095 0.263552 -0.017504 -0.142888 0.000000 0.000000 0.000000 0.000000 0.000000 0.000000 0.000000 
